<mxfile host="app.diagrams.net" modified="2024-01-18T02:18:39.106Z" agent="Mozilla/5.0 (Windows NT 10.0; Win64; x64) AppleWebKit/537.36 (KHTML, like Gecko) Chrome/120.0.0.0 Safari/537.36 Edg/120.0.0.0" version="21.8.2" etag="w7dG4_w_zWNoOp8p6iyC" type="github">
  <diagram name="Page-1" id="OC6J-rZFk2_YuYmHeyaQ">
    <mxGraphModel>
      <root>
        <mxCell id="0" />
        <mxCell id="1" parent="0" />
      </root>
    </mxGraphModel>
  </diagram>
</mxfile>
